<?xml version="1.0" encoding="utf-8"?>
<!-- Generator: Adobe Illustrator 17.0.0, SVG Export Plug-In . SVG Version: 6.00 Build 0)  -->
<!DOCTYPE svg PUBLIC "-//W3C//DTD SVG 1.1//EN" "http://www.w3.org/Graphics/SVG/1.1/DTD/svg11.dtd">
<svg version="1.1"
	 id="svg8" xmlns:rdf="http://www.w3.org/1999/02/22-rdf-syntax-ns#" xmlns:svg="http://www.w3.org/2000/svg" xmlns:dc="http://purl.org/dc/elements/1.1/" xmlns:cc="http://creativecommons.org/ns#"
	 xmlns="http://www.w3.org/2000/svg" xmlns:xlink="http://www.w3.org/1999/xlink" x="0px" y="0px" width="24px" height="24px"
	 viewBox="0 0 24 24" enable-background="new 0 0 24 24" xml:space="preserve">
<g id="g2140" transform="translate(0,-290.65039)">
	<path id="rect2131" d="M6,292.65c-2.199,0-4,1.801-4,4v12c0,2.199,1.801,4,4,4h12c2.199,0,4-1.801,4-4v-12c0-2.199-1.801-4-4-4H6z"
		/>
	<path id="path2133" fill="#FFFFFF" d="M12,296.65c-0.552,0-1,0.448-1,1v4H7c-0.552,0-1,0.448-1,1s0.448,1,1,1h4v4
		c0,0.552,0.448,1,1,1s1-0.448,1-1v-4h4c0.552,0,1-0.448,1-1s-0.448-1-1-1h-4v-4C13,297.098,12.552,296.65,12,296.65z"/>
</g>
</svg>
