<?xml version="1.0" encoding="utf-8"?>
<!-- Generator: Adobe Illustrator 17.0.0, SVG Export Plug-In . SVG Version: 6.00 Build 0)  -->
<!DOCTYPE svg PUBLIC "-//W3C//DTD SVG 1.1//EN" "http://www.w3.org/Graphics/SVG/1.1/DTD/svg11.dtd">
<svg version="1.1" id="Layer_1" xmlns="http://www.w3.org/2000/svg" xmlns:xlink="http://www.w3.org/1999/xlink" x="0px" y="0px"
	 width="32px" height="32px" viewBox="0 0 32 32" enable-background="new 0 0 32 32" xml:space="preserve">
<path opacity="0.1" fill="#070707" enable-background="new    " d="M8,0h16c4.418,0,8,3.582,8,8v16c0,4.418-3.582,8-8,8H8
	c-4.418,0-8-3.582-8-8V8C0,3.582,3.582,0,8,0z"/>
<path fill="none" stroke="#000000" stroke-width="2" stroke-linejoin="round" d="M16,7L16,7c1.657,0,3,1.343,3,3v5
	c0,1.657-1.343,3-3,3l0,0c-1.657,0-3-1.343-3-3v-5C13,8.343,14.343,7,16,7z"/>
<path fill="none" stroke="#000000" stroke-width="2" stroke-linecap="round" stroke-linejoin="round" d="M9,15
	c0,1.857,0.738,3.637,2.05,4.95C12.363,21.263,14.144,22,16,22s3.637-0.737,4.95-2.05C22.263,18.637,23,16.857,23,15"/>
<path fill="none" stroke="#000000" stroke-width="2" stroke-linecap="round" stroke-linejoin="round" d="M16,25v-2"/>
</svg>
