    <svg width="26" height="20" viewBox="0 0 26 20" fill="none" xmlns="http://www.w3.org/2000/svg">
<path d="M24.375 16.25C24.375 16.681 24.2038 17.0943 23.899 17.399C23.5943 17.7038 23.181 17.875 22.75 17.875H3.25C2.81902 17.875 2.4057 17.7038 2.10095 17.399C1.7962 17.0943 1.625 16.681 1.625 16.25V6.5C1.625 6.06902 1.7962 5.6557 2.10095 5.35095C2.4057 5.04621 2.81902 4.875 3.25 4.875H5.1545C6.44676 4.87429 7.68587 4.36053 8.5995 3.44662L9.94825 2.10113C10.2521 1.79715 10.6641 1.62595 11.0939 1.625H14.9029C15.3338 1.62509 15.7471 1.79636 16.0518 2.10113L17.3973 3.44662C17.85 3.89954 18.3876 4.2588 18.9793 4.50388C19.5709 4.74897 20.2051 4.87508 20.8455 4.875H22.75C23.181 4.875 23.5943 5.04621 23.899 5.35095C24.2038 5.6557 24.375 6.06902 24.375 6.5V16.25ZM3.25 3.25C2.38805 3.25 1.5614 3.59241 0.951903 4.2019C0.34241 4.8114 0 5.63805 0 6.5L0 16.25C0 17.112 0.34241 17.9386 0.951903 18.5481C1.5614 19.1576 2.38805 19.5 3.25 19.5H22.75C23.612 19.5 24.4386 19.1576 25.0481 18.5481C25.6576 17.9386 26 17.112 26 16.25V6.5C26 5.63805 25.6576 4.8114 25.0481 4.2019C24.4386 3.59241 23.612 3.25 22.75 3.25H20.8455C19.9836 3.24982 19.1571 2.90729 18.5477 2.29775L17.2023 0.95225C16.5929 0.342714 15.7664 0.000184072 14.9045 0H11.0955C10.2336 0.000184072 9.4071 0.342714 8.79775 0.95225L7.45225 2.29775C6.8429 2.90729 6.01638 3.24982 5.1545 3.25H3.25Z" fill="black"/>
<path d="M13 14.625C11.9226 14.625 10.8892 14.197 10.1274 13.4351C9.36551 12.6733 8.9375 11.6399 8.9375 10.5625C8.9375 9.48506 9.36551 8.45175 10.1274 7.68988C10.8892 6.92801 11.9226 6.5 13 6.5C14.0774 6.5 15.1108 6.92801 15.8726 7.68988C16.6345 8.45175 17.0625 9.48506 17.0625 10.5625C17.0625 11.6399 16.6345 12.6733 15.8726 13.4351C15.1108 14.197 14.0774 14.625 13 14.625ZM13 16.25C14.5084 16.25 15.9551 15.6508 17.0217 14.5842C18.0883 13.5176 18.6875 12.0709 18.6875 10.5625C18.6875 9.05408 18.0883 7.60744 17.0217 6.54083C15.9551 5.47422 14.5084 4.875 13 4.875C11.4916 4.875 10.0449 5.47422 8.97833 6.54083C7.91172 7.60744 7.3125 9.05408 7.3125 10.5625C7.3125 12.0709 7.91172 13.5176 8.97833 14.5842C10.0449 15.6508 11.4916 16.25 13 16.25ZM4.875 7.3125C4.875 7.52799 4.7894 7.73465 4.63702 7.88702C4.48465 8.0394 4.27799 8.125 4.0625 8.125C3.84701 8.125 3.64035 8.0394 3.48798 7.88702C3.3356 7.73465 3.25 7.52799 3.25 7.3125C3.25 7.09701 3.3356 6.89035 3.48798 6.73798C3.64035 6.5856 3.84701 6.5 4.0625 6.5C4.27799 6.5 4.48465 6.5856 4.63702 6.73798C4.7894 6.89035 4.875 7.09701 4.875 7.3125Z" fill="black"/>
</svg>
