<svg xmlns="http://www.w3.org/2000/svg" xmlns:xlink="http://www.w3.org/1999/xlink" viewBox="0 0 64 64"><defs><style>.cls-1{fill:url(#linear-gradient);}</style><linearGradient id="linear-gradient" x1="5.71" y1="32.01" x2="58.3" y2="32.01" gradientUnits="userSpaceOnUse"><stop offset="0" stop-color="#000000" id="id_102"></stop><stop offset="0.19" stop-color="#0f0f0f" id="id_103"></stop><stop offset="0.74" stop-color="#000000" id="id_104"></stop><stop offset="1" stop-color="#000000" id="id_105"></stop></linearGradient></defs><g id="Layer_85" data-name="Layer 85"><path class="cls-1" d="M57.71,7,56.32,5.59l-.06-.06-.14-.11L56,5.3a1,1,0,0,0-.18-.1l-.15-.07-.24-.07-.13,0L55,5h-.24l-6.53.43A2,2,0,0,0,46.38,7.3l-.31,4.77-4.78.32a2,2,0,0,0-1.86,1.87L39.12,19l-4.78.31a2,2,0,0,0-1.87,1.87L32.15,26l-4.78.31a2,2,0,0,0-1,.35A16.45,16.45,0,0,0,10.51,54.18l.34.32.11.09a16.37,16.37,0,0,0,22.82-.41,16.54,16.54,0,0,0,3.5-18.1l20.3-20.31a2,2,0,0,0,.59-1.37l.13-6A2,2,0,0,0,57.71,7ZM17.88,51.35a3.2,3.2,0,0,1-5.47-2.27,3.2,3.2,0,0,1,5.47-2.26,3.2,3.2,0,0,1,0,4.53Zm13.08,0a12.41,12.41,0,0,1-11,3.46,7.37,7.37,0,0,0,.74-.64A7.21,7.21,0,0,0,10.52,44a6,6,0,0,0-.62.71A12.42,12.42,0,0,1,22.16,30.1a12.34,12.34,0,0,1,4.42.81,9.54,9.54,0,0,1,1.14.49A12.67,12.67,0,0,1,31,33.74a13,13,0,0,1,2.15,2.87A12.54,12.54,0,0,1,31,51.36ZM54.19,13.51l-19,19a15.13,15.13,0,0,0-1.4-1.6,13.17,13.17,0,0,0-1-1l1.41-.09A2,2,0,0,0,36,28l.32-4.79,4.78-.31A2,2,0,0,0,43,21l.31-4.77L48.08,16A2,2,0,0,0,50,14.08l.31-4.77,3.88-.25.14.14Z" id="id_101"></path></g></svg>