<?xml version="1.0" encoding="utf-8"?>
<!-- Generator: Adobe Illustrator 17.0.0, SVG Export Plug-In . SVG Version: 6.00 Build 0)  -->
<!DOCTYPE svg PUBLIC "-//W3C//DTD SVG 1.1//EN" "http://www.w3.org/Graphics/SVG/1.1/DTD/svg11.dtd">
<svg version="1.1" id="Layer_1" xmlns="http://www.w3.org/2000/svg" xmlns:xlink="http://www.w3.org/1999/xlink" x="0px" y="0px"
	 width="900px" height="900px" viewBox="0 0 900 900" enable-background="new 0 0 900 900" xml:space="preserve">
<line fill="none" stroke="#010101" stroke-width="4" stroke-miterlimit="10" x1="281.25" y1="168.75" x2="787.5" y2="168.75"/>
<line fill="none" stroke="#010101" stroke-width="4" stroke-miterlimit="10" x1="281.25" y1="731.25" x2="787.5" y2="731.25"/>
<polygon fill="#010101" points="787.5,478.125 281.25,478.125 281.25,421.875 788,421.875 "/>
<polygon fill="#010101" points="787.5,759.375 281.25,759.375 281.25,703.125 788,703.125 "/>
<polygon fill="#010101" points="788,196.875 281,196.875 281,140.625 787.75,140.625 "/>
<polygon stroke="#010101" stroke-width="13" stroke-miterlimit="10" points="143.331,231.283 95.536,206.648 48.147,232.054 
	56.807,178.985 18,141.766 71.147,133.603 94.553,85.195 118.739,133.218 172.012,140.519 133.813,178.362 "/>
<polygon fill="#070707" stroke="#010101" stroke-width="13" stroke-miterlimit="10" points="141.7,516.5 93.905,491.865 
	46.516,517.271 55.176,464.203 16.369,426.983 69.516,418.821 92.922,370.412 117.108,418.435 170.381,425.736 132.182,463.579 "/>
<polygon stroke="#010101" stroke-width="13" stroke-miterlimit="10" points="141.7,803.909 93.905,779.273 46.516,804.68 
	55.176,751.611 16.369,714.392 69.516,706.229 92.922,657.82 117.108,705.844 170.381,713.145 132.182,750.988 "/>
</svg>
