<?xml version="1.0" ?><svg data-name="Layer 1" id="Layer_1" viewBox="0 0 512 512" xmlns="http://www.w3.org/2000/svg"><title/><path d="M173,218.86a59.87,59.87,0,0,0,59.79-59.81V129.63a59.81,59.81,0,1,0-119.61,0v29.42A59.89,59.89,0,0,0,173,218.86Zm-50-89.23a50,50,0,1,1,100,0v29.42a50,50,0,1,1-100,0Z"/><path d="M339,218.86a59.87,59.87,0,0,0,59.8-59.81V129.63a59.81,59.81,0,1,0-119.61,0v29.42A59.88,59.88,0,0,0,339,218.86Zm-50-89.23a50,50,0,1,1,100,0v29.42a50,50,0,1,1-100,0Z"/><path d="M393.91,333.15a4.9,4.9,0,0,0-4.91,4.9v99.22a4.91,4.91,0,1,0,9.81,0V338.05A4.9,4.9,0,0,0,393.91,333.15Z"/><path d="M118.08,333.15a4.9,4.9,0,0,0-4.91,4.9v99.22a4.91,4.91,0,1,0,9.81,0V338.05A4.9,4.9,0,0,0,118.08,333.15Z"/><path d="M442.67,282.21a32.3,32.3,0,0,0,0-45.68c-12.16-12.18-33.44-12.21-45.67,0l-5.89,5.89a75.83,75.83,0,0,0-24.31-4H145.18a76.09,76.09,0,0,0-24.3,4L115,236.53A32.3,32.3,0,0,0,69.3,282.21L74.12,287a75.71,75.71,0,0,0-5.21,27.67V437.27a4.9,4.9,0,1,0,9.8,0V314.69A65.87,65.87,0,0,1,82,294.1a32.29,32.29,0,0,0,45.75-43.54,66.33,66.33,0,0,1,17.42-2.33H286.65l-34.13,34.12a4.9,4.9,0,0,0-1.43,3.47V437.27a4.91,4.91,0,1,0,9.81,0V287.85l39-39a4.76,4.76,0,0,0,.5-.61H366.8a66.27,66.27,0,0,1,17.42,2.33A32.3,32.3,0,0,0,430,294.11a66.15,66.15,0,0,1,3.29,20.58V437.27a4.91,4.91,0,1,0,9.81,0V314.69A75.92,75.92,0,0,0,437.87,287Zm-326.53,1.13a22.56,22.56,0,0,1-31.83,0l-8.06-8.07a22.49,22.49,0,1,1,31.8-31.81l8.07,8.07A22.52,22.52,0,0,1,116.14,283.34Zm279.72,0a22.48,22.48,0,0,1,0-31.81l8.07-8.07a22.49,22.49,0,0,1,31.79,31.81l-8.05,8.07C419.17,291.84,404.37,291.84,395.86,283.34Z"/></svg>