<svg width="22" height="22" viewBox="0 0 22 22" fill="none" xmlns="http://www.w3.org/2000/svg">
<path d="M15.1945 8.57784C14.7669 8.86353 14.2642 9.01602 13.75 9.01602C13.0604 9.01602 12.3991 8.74209 11.9115 8.2545C11.4239 7.7669 11.15 7.10558 11.15 6.41602C11.15 5.90179 11.3025 5.3991 11.5882 4.97153C11.8739 4.54397 12.2799 4.21072 12.755 4.01393C13.2301 3.81714 13.7529 3.76565 14.2572 3.86598C14.7616 3.9663 15.2249 4.21392 15.5885 4.57754C15.9521 4.94116 16.1997 5.40443 16.3 5.90878C16.4004 6.41313 16.3489 6.93591 16.1521 7.41099C15.9553 7.88608 15.622 8.29215 15.1945 8.57784ZM14.3426 5.52912C14.1672 5.41191 13.961 5.34935 13.75 5.34935C13.4671 5.34935 13.1958 5.46173 12.9958 5.66177C12.7957 5.86181 12.6833 6.13312 12.6833 6.41602C12.6833 6.62698 12.7459 6.83321 12.8631 7.00863C12.9803 7.18404 13.1469 7.32076 13.3418 7.40149C13.5367 7.48222 13.7512 7.50335 13.9581 7.46219C14.165 7.42103 14.3551 7.31944 14.5042 7.17026C14.6534 7.02109 14.755 6.83103 14.7962 6.62411C14.8373 6.4172 14.8162 6.20273 14.7355 6.00782C14.6547 5.81291 14.518 5.64632 14.3426 5.52912Z" fill="black" stroke="white" stroke-width="0.3"/>
<path d="M20.1667 20.3167H20.3167V20.1667V18.3333V18.2712L20.2727 18.2273L15.6894 13.6439L15.5833 13.5379L15.4773 13.6439L14.0201 15.1011C13.7047 15.4146 13.278 15.5906 12.8333 15.5906C12.3887 15.5906 11.9621 15.4147 11.6467 15.1013C11.6467 15.1012 11.6466 15.1012 11.6466 15.1011L6.52273 9.97727L6.41667 9.8712L6.3106 9.97727L1.72727 14.5606L1.68333 14.6045V14.6667V20.1667V20.3167H1.83333H20.1667ZM20.0606 15.8452L20.3167 16.1013V15.7392V1.83333V1.68333H20.1667H1.83333H1.68333V1.83333V12.0725V12.4346L1.9394 12.1786L5.22992 8.88805C5.54531 8.57453 5.97195 8.39855 6.41667 8.39855C6.86134 8.39855 7.28795 8.5745 7.60334 8.88797C7.60336 8.888 7.60339 8.88802 7.60342 8.88805L12.7273 14.0119L12.8333 14.118L12.9394 14.0119L14.3966 12.5547C14.3967 12.5546 14.3968 12.5545 14.3969 12.5544C14.7123 12.2411 15.1388 12.0652 15.5833 12.0652C16.0279 12.0652 16.4544 12.2411 16.7698 12.5544C16.7699 12.5545 16.77 12.5546 16.7701 12.5547L20.0606 15.8452ZM1.83333 0.15H20.1667C20.6131 0.15 21.0413 0.327351 21.357 0.643037C21.6726 0.958723 21.85 1.38689 21.85 1.83333V20.1667C21.85 20.6131 21.6726 21.0413 21.357 21.357C21.0413 21.6726 20.6131 21.85 20.1667 21.85H1.83333C1.38689 21.85 0.958723 21.6726 0.643037 21.357C0.327351 21.0413 0.15 20.6131 0.15 20.1667V1.83333C0.15 1.38689 0.327351 0.958723 0.643037 0.643037C0.958723 0.327351 1.38689 0.15 1.83333 0.15Z" fill="black" stroke="white" stroke-width="0.3"/>
</svg>
