<?xml version="1.0" encoding="utf-8"?>
<!-- Generator: Adobe Illustrator 17.0.0, SVG Export Plug-In . SVG Version: 6.00 Build 0)  -->
<!DOCTYPE svg PUBLIC "-//W3C//DTD SVG 1.1//EN" "http://www.w3.org/Graphics/SVG/1.1/DTD/svg11.dtd">
<svg version="1.1" id="Layer_1" xmlns="http://www.w3.org/2000/svg" xmlns:xlink="http://www.w3.org/1999/xlink" x="0px" y="0px"
	 width="900px" height="900px" viewBox="0 0 900 900" enable-background="new 0 0 900 900" xml:space="preserve">
<title></title>
<g id="Layer_2">
	<g id="Layer_3">
		<linearGradient id="SVGID_1_" gradientUnits="userSpaceOnUse" x1="59.2932" y1="449.7983" x2="840.5421" y2="449.7983">
			<stop  offset="0" style="stop-color:#ED4673"/>
			<stop  offset="0.4892" style="stop-color:#8E3D98"/>
			<stop  offset="1" style="stop-color:#D0278E"/>
		</linearGradient>
		<path fill="url(#SVGID_1_)" d="M450,812.338L126.234,488.571c-91.169-93.507-88.831-243.117,4.675-334.286
			c87.662-85.325,226.753-90,319.091-9.351c93.506-80.649,233.766-75.974,321.429,11.688l0,0
			c91.169,91.169,92.338,239.61,2.338,331.948l0,0L450,812.338z M155.455,467.532l295.714,295.714l296.883-296.883
			c78.312-78.312,78.312-206.883,0-285.195l0,0l0,0c-78.312-78.312-205.714-78.312-285.195,0L450,194.026l-12.857-12.857
			c-78.312-79.481-205.714-79.481-285.195-2.338s-79.481,205.714-2.338,285.195l2.338,1.169L155.455,467.532z"/>
	</g>
</g>
</svg>
