<?xml version="1.0" encoding="utf-8"?>
<!-- Generator: Adobe Illustrator 17.0.0, SVG Export Plug-In . SVG Version: 6.00 Build 0)  -->
<!DOCTYPE svg PUBLIC "-//W3C//DTD SVG 1.1//EN" "http://www.w3.org/Graphics/SVG/1.1/DTD/svg11.dtd">
<svg version="1.1" id="Layer_1" xmlns="http://www.w3.org/2000/svg" xmlns:xlink="http://www.w3.org/1999/xlink" x="0px" y="0px"
	 width="28px" height="28px" viewBox="0 0 28 28" enable-background="new 0 0 28 28" xml:space="preserve">
<linearGradient id="SVGID_1_" gradientUnits="userSpaceOnUse" x1="1" y1="14" x2="27" y2="14">
	<stop  offset="0" style="stop-color:#ED4673"/>
	<stop  offset="0.4892" style="stop-color:#8E3D98"/>
	<stop  offset="1" style="stop-color:#D0278E"/>
</linearGradient>
<path fill="url(#SVGID_1_)" d="M16.338,1.944l9.632,7.88l0.05,0.055c0.15,0.165,0.38,0.428,0.574,0.741
	C26.78,10.919,27,11.369,27,11.896v13.102C27,26.101,26.107,27,25,27h-6.24c-0.828,0-1.5-0.672-1.5-1.5v-4.706
	c0-1.799-1.454-3.253-3.243-3.253c-1.789,0-3.243,1.454-3.243,3.253V25.5c0,0.828-0.672,1.5-1.5,1.5H3c-1.107,0-2-0.899-2-2.002
	V11.743c0-0.652,0.363-1.179,0.57-1.44c0.121-0.152,0.239-0.276,0.326-0.362c0.044-0.044,0.082-0.079,0.111-0.105
	c0.014-0.013,0.026-0.024,0.036-0.032l0.012-0.011L2.06,9.789l0.003-0.002c0,0,0.001-0.001,0.645,0.764L2.064,9.786l0.01-0.008
	l9.555-7.832C12.945,0.685,15.021,0.684,16.338,1.944z M3.352,11.316l-0.006,0.005c-0.01,0.009-0.027,0.025-0.049,0.047
	c-0.045,0.044-0.104,0.106-0.16,0.177c-0.058,0.073-0.1,0.139-0.124,0.19C3.007,11.749,3.002,11.76,3,11.767v13.231l0,0.002
	L3.001,25h5.773v-4.206c0-2.899,2.345-5.253,5.243-5.253c2.898,0,5.243,2.354,5.243,5.253V25h5.739L25,24.999l0-0.002V11.896
	c0,0.003,0.001,0.004,0,0c-0.003-0.014-0.021-0.086-0.105-0.221s-0.194-0.271-0.307-0.397l-9.584-7.841l-0.033-0.032
	c-0.549-0.54-1.426-0.539-1.974,0.001l-0.033,0.032L3.352,11.316z"/>
</svg>
