<?xml version="1.0" encoding="utf-8"?>
<!-- Generator: Adobe Illustrator 17.0.0, SVG Export Plug-In . SVG Version: 6.00 Build 0)  -->
<!DOCTYPE svg PUBLIC "-//W3C//DTD SVG 1.1//EN" "http://www.w3.org/Graphics/SVG/1.1/DTD/svg11.dtd">
<svg version="1.1" id="Layer_1" xmlns="http://www.w3.org/2000/svg" xmlns:xlink="http://www.w3.org/1999/xlink" x="0px" y="0px"
	 width="28px" height="28px" viewBox="0 0 28 28" enable-background="new 0 0 28 28" xml:space="preserve">
<path d="M26.594,10.62c-0.195-0.313-0.424-0.576-0.574-0.741l-0.05-0.055l-9.632-7.88c-1.318-1.259-3.393-1.258-4.709,0.002
	L2.074,9.778l-0.01,0.008l0.644,0.765C2.064,9.786,2.063,9.787,2.063,9.787L2.06,9.789L2.055,9.793L2.043,9.804
	C2.034,9.812,2.022,9.823,2.007,9.836C1.979,9.861,1.941,9.897,1.896,9.94c-0.088,0.086-0.206,0.21-0.326,0.362
	C1.363,10.564,1,11.09,1,11.742v13.255C1,26.101,1.893,27,3,27h6.274c0.828,0,1.5-0.672,1.5-1.5v-4.706
	c0-1.799,1.454-3.253,3.243-3.253c1.789,0,3.243,1.454,3.243,3.253V25.5c0,0.828,0.672,1.5,1.5,1.5H25c1.107,0,2-0.899,2-2.002
	V11.896C27,11.369,26.78,10.919,26.594,10.62z"/>
</svg>
