<?xml version="1.0" encoding="utf-8"?>
<!-- Generator: Adobe Illustrator 17.0.0, SVG Export Plug-In . SVG Version: 6.00 Build 0)  -->
<!DOCTYPE svg PUBLIC "-//W3C//DTD SVG 1.1//EN" "http://www.w3.org/Graphics/SVG/1.1/DTD/svg11.dtd">
<svg version="1.1" id="Layer_1" xmlns="http://www.w3.org/2000/svg" xmlns:xlink="http://www.w3.org/1999/xlink" x="0px" y="0px"
	 width="900px" height="900px" viewBox="0 0 900 900" enable-background="new 0 0 900 900" xml:space="preserve">
<g>
	<g>
		<linearGradient id="SVGID_1_" gradientUnits="userSpaceOnUse" x1="0" y1="450" x2="900" y2="450">
			<stop  offset="0" style="stop-color:#ED4673"/>
			<stop  offset="0.5215" style="stop-color:#8E3D98"/>
			<stop  offset="1" style="stop-color:#D0278E"/>
		</linearGradient>
		<path fill="url(#SVGID_1_)" d="M0,0v900h900V0H0z M339.129,58.695h221.739v221.739H339.129V58.695z M339.129,339.129h221.739
			V560.87H339.129V339.129z M280.434,841.305H58.695V619.566h221.739V841.305z M280.434,560.869H58.695V339.129h221.739V560.869z
			 M280.434,280.434H58.695V58.695h221.739V280.434z M339.129,841.305V619.566h221.739v221.739H339.129L339.129,841.305z
			 M841.305,841.305H619.566V619.566h221.739V841.305L841.305,841.305z M841.305,560.87H619.566V339.129h221.739V560.87
			L841.305,560.87z M841.305,280.434H619.566V58.695h221.739V280.434L841.305,280.434z"/>
	</g>
</g>
</svg>
