<?xml version="1.0" encoding="utf-8"?>
<!-- Generator: Adobe Illustrator 17.0.0, SVG Export Plug-In . SVG Version: 6.00 Build 0)  -->
<!DOCTYPE svg PUBLIC "-//W3C//DTD SVG 1.1//EN" "http://www.w3.org/Graphics/SVG/1.1/DTD/svg11.dtd">
<svg version="1.1" id="Layer_1" xmlns="http://www.w3.org/2000/svg" xmlns:xlink="http://www.w3.org/1999/xlink" x="0px" y="0px"
	 width="900px" height="900px" viewBox="0 0 900 900" enable-background="new 0 0 900 900" xml:space="preserve">
<g>
	<linearGradient id="SVGID_1_" gradientUnits="userSpaceOnUse" x1="9.668" y1="449.9634" x2="890.2587" y2="449.9634">
		<stop  offset="0" style="stop-color:#ED4673"/>
		<stop  offset="0.5215" style="stop-color:#8E3D98"/>
		<stop  offset="1" style="stop-color:#D0278E"/>
	</linearGradient>
	<path fill="url(#SVGID_1_)" d="M450,282.495c43.14,0,82.251,17.505,110.522,45.776s45.776,67.383,45.776,110.522
		s-17.505,82.178-45.776,110.522C532.251,577.588,493.14,595.093,450,595.093s-82.251-17.505-110.522-45.776
		s-45.776-67.383-45.776-110.522s17.505-82.251,45.776-110.522S406.86,282.495,450,282.495L450,282.495z M92.065,105.396h256.348
		L449.121,0l104.37,105.396h254.37c45.337,0,82.397,37.134,82.397,82.397v629.736c0,45.337-37.134,82.397-82.397,82.397H92.065
		C46.802,900,9.668,862.939,9.668,817.603v-629.81C9.668,142.456,46.729,105.396,92.065,105.396L92.065,105.396z M348.486,154.688
		H92.139c-9.082,0-17.358,3.735-23.364,9.741c-6.006,6.006-9.741,14.282-9.741,23.364v629.736c0,9.082,3.735,17.358,9.741,23.364
		s14.282,9.741,23.364,9.741h102.539c6.152-60.352,33.252-114.478,73.828-155.127c46.436-46.436,110.596-75.146,181.494-75.146
		s135.059,28.711,181.494,75.146c40.576,40.576,67.676,94.775,73.828,155.127h102.612c9.082,0,17.358-3.735,23.364-9.741
		s9.814-14.282,9.814-23.364V187.793c0-9.082-3.735-17.358-9.814-23.364c-6.006-6.006-14.282-9.741-23.364-9.741H553.491v-0.146
		c-12.598,0-25.269-4.834-34.863-14.502l-68.921-69.507l-63.281,66.284C377.417,147.729,363.721,154.688,348.486,154.688
		L348.486,154.688z M245.361,850.708h409.351c-5.933-46.436-27.246-88.037-58.74-119.531
		c-37.353-37.354-88.916-60.425-145.898-60.425s-108.545,23.071-145.898,60.425C272.607,762.671,251.294,804.272,245.361,850.708
		L245.361,850.708z M530.054,358.74c-20.508-20.508-48.779-33.179-80.054-33.179s-59.546,12.671-80.054,33.179
		c-20.508,20.508-33.179,48.779-33.179,80.054s12.671,59.546,33.179,80.054c20.508,20.508,48.779,33.179,80.054,33.179
		s59.546-12.671,80.054-33.179c20.508-20.508,33.179-48.779,33.179-80.054S550.562,379.175,530.054,358.74L530.054,358.74z"/>
</g>
</svg>
