<?xml version="1.0" encoding="utf-8"?>
<!-- Generator: Adobe Illustrator 17.0.0, SVG Export Plug-In . SVG Version: 6.00 Build 0)  -->
<!DOCTYPE svg PUBLIC "-//W3C//DTD SVG 1.1//EN" "http://www.w3.org/Graphics/SVG/1.1/DTD/svg11.dtd">
<svg version="1.1" id="Layer_1" xmlns="http://www.w3.org/2000/svg" xmlns:xlink="http://www.w3.org/1999/xlink" x="0px" y="0px"
	 width="32px" height="32px" viewBox="0 0 32 32" enable-background="new 0 0 32 32" xml:space="preserve">
<path opacity="0.1" fill="#070707" enable-background="new    " d="M8,0h16c4.418,0,8,3.582,8,8v16c0,4.418-3.582,8-8,8H8
	c-4.418,0-8-3.582-8-8V8C0,3.582,3.582,0,8,0z"/>
<path d="M15.688,26.333c0.166-0.001,0.328-0.058,0.458-0.162c0.28-0.251,7.661-6.2,7.661-12.385c0-4.484-3.635-8.119-8.119-8.119
	s-8.119,3.635-8.119,8.119c0,6.185,7.381,12.134,7.661,12.385C15.36,26.275,15.521,26.332,15.688,26.333z M9.045,13.786
	c0-3.669,2.974-6.643,6.643-6.643s6.643,2.974,6.643,6.643c0,4.65-5.071,9.455-6.643,10.843
	C14.115,23.241,9.045,18.436,9.045,13.786z"/>
<path d="M19.961,13.786c0-2.36-1.913-4.274-4.274-4.274s-4.274,1.913-4.274,4.274s1.913,4.274,4.274,4.274
	S19.961,16.146,19.961,13.786z M12.672,13.786c0-1.665,1.35-3.015,3.015-3.015s3.015,1.35,3.015,3.015s-1.35,3.015-3.015,3.015
	S12.672,15.451,12.672,13.786z"/>
</svg>
