<?xml version="1.0" encoding="utf-8"?>
<!-- Generator: Adobe Illustrator 17.0.0, SVG Export Plug-In . SVG Version: 6.00 Build 0)  -->
<!DOCTYPE svg PUBLIC "-//W3C//DTD SVG 1.1//EN" "http://www.w3.org/Graphics/SVG/1.1/DTD/svg11.dtd">
<svg version="1.1" id="Layer_1" xmlns="http://www.w3.org/2000/svg" xmlns:xlink="http://www.w3.org/1999/xlink" x="0px" y="0px"
	 width="32px" height="32px" viewBox="0 0 32 32" enable-background="new 0 0 32 32" xml:space="preserve">
<path opacity="0.1" enable-background="new    " d="M8,0h16c4.418,0,8,3.582,8,8v16c0,4.418-3.582,8-8,8H8c-4.418,0-8-3.582-8-8V8
	C0,3.582,3.582,0,8,0z"/>
<path fill="none" stroke="#0A0909" stroke-width="2" d="M7,15c0-3.771,0-5.657,1.172-6.828C9.343,7,11.229,7,15,7h2
	c3.771,0,5.657,0,6.828,1.172C25,9.343,25,11.229,25,15v2c0,3.771,0,5.657-1.172,6.828C22.657,25,20.771,25,17,25h-2
	c-3.771,0-5.657,0-6.828-1.172C7,22.657,7,20.771,7,17V15z"/>
<path d="M23,17.585l-0.02-0.02c-0.39-0.39-0.726-0.726-1.026-0.979c-0.317-0.267-0.662-0.502-1.087-0.63
	c-0.565-0.17-1.168-0.17-1.733,0c-0.425,0.128-0.77,0.363-1.087,0.63c-0.3,0.253-0.636,0.589-1.026,0.979l-0.028,0.028
	c-0.307,0.307-0.487,0.486-0.628,0.602l-0.02,0.016l-0.013-0.023c-0.087-0.16-0.188-0.393-0.359-0.792l-0.054-0.125l-0.022-0.052
	l0,0c-0.356-0.831-0.655-1.528-0.951-2.054c-0.305-0.542-0.685-1.05-1.277-1.346c-0.494-0.248-1.046-0.354-1.597-0.307
	c-0.66,0.056-1.201,0.386-1.685,0.776C9.982,14.616,9.528,15.06,9,15.586V17c0,0.517,0,0.985,0.003,1.411l1.114-1.114
	c0.689-0.689,1.149-1.147,1.525-1.45c0.371-0.299,0.53-0.335,0.599-0.341c0.184-0.016,0.368,0.02,0.532,0.102
	c0.062,0.031,0.196,0.124,0.43,0.539c0.236,0.42,0.494,1.016,0.878,1.912l0.053,0.125l0.016,0.038
	c0.149,0.347,0.287,0.67,0.425,0.924c0.145,0.265,0.355,0.583,0.709,0.802c0.417,0.258,0.915,0.354,1.398,0.269
	c0.41-0.072,0.723-0.289,0.956-0.482c0.222-0.184,0.471-0.432,0.738-0.7h0l0.029-0.029c0.426-0.426,0.702-0.701,0.929-0.892
	c0.217-0.183,0.32-0.228,0.376-0.245c0.188-0.057,0.389-0.057,0.578,0c0.056,0.017,0.159,0.062,0.376,0.245
	c0.227,0.191,0.503,0.466,0.929,0.892l1.35,1.35C22.99,19.64,22.998,18.748,23,17.585z"/>
<circle cx="20.5" cy="11.5" r="1.5"/>
</svg>
