<svg width="24" height="24" viewBox="0 0 24 24" fill="none" xmlns="http://www.w3.org/2000/svg">
<path d="M11.9634 12.8451C11.8875 12.8343 11.79 12.8343 11.7034 12.8451C9.7967 12.7801 8.28003 11.2201 8.28003 9.3026C8.28003 7.34177 9.8617 5.74927 11.8334 5.74927C13.7942 5.74927 15.3867 7.34177 15.3867 9.3026C15.3759 11.2201 13.87 12.7801 11.9634 12.8451Z" stroke="#292D32" stroke-width="1.6" stroke-linecap="round" stroke-linejoin="round"/>
<path d="M19.1349 19.9952C17.2066 21.761 14.6499 22.8335 11.8333 22.8335C9.01662 22.8335 6.45995 21.761 4.53162 19.9952C4.63995 18.9769 5.28995 17.9802 6.44912 17.2002C9.41745 15.2285 14.2708 15.2285 17.2174 17.2002C18.3766 17.9802 19.0266 18.9769 19.1349 19.9952Z" stroke="#292D32" stroke-width="1.6" stroke-linecap="round" stroke-linejoin="round"/>
<path d="M11.8333 22.8334C17.8164 22.8334 22.6667 17.9832 22.6667 12.0001C22.6667 6.017 17.8164 1.16675 11.8333 1.16675C5.85025 1.16675 1 6.017 1 12.0001C1 17.9832 5.85025 22.8334 11.8333 22.8334Z" stroke="#292D32" stroke-width="1.6" stroke-linecap="round" stroke-linejoin="round"/>
</svg>
