<svg width="28" height="32" viewBox="0 0 28 32" fill="none" xmlns="http://www.w3.org/2000/svg">
<path d="M23.883 6.08606L21.063 8.91806C22.953 10.8091 24 13.3241 24 16.0001C24 21.5161 19.516 26.0001 14 26.0001V24.9657C14 24.6094 13.5691 24.4309 13.3172 24.6829L10 28.0001L13.3172 31.3172C13.5691 31.5692 14 31.3907 14 31.0344V30.0001C21.719 30.0001 28 23.7191 28 16.0001C28 12.2541 26.539 8.73406 23.883 6.08606Z" fill="white"/>
<path d="M17.7879 4.21213C17.905 4.09497 17.905 3.90503 17.7879 3.78787L14.5121 0.512131C14.3231 0.323142 14 0.456993 14 0.724264V2C6.281 2 0 8.281 0 16C0 19.746 1.461 23.266 4.117 25.914L6.937 23.082C5.047 21.191 4 18.676 4 16C4 10.484 8.484 6 14 6V7.27574C14 7.54301 14.3231 7.67686 14.5121 7.48787L17.7879 4.21213Z" fill="white"/>
</svg>
