<?xml version="1.0" encoding="utf-8"?>
<!-- Generator: Adobe Illustrator 17.0.0, SVG Export Plug-In . SVG Version: 6.00 Build 0)  -->
<!DOCTYPE svg PUBLIC "-//W3C//DTD SVG 1.1//EN" "http://www.w3.org/Graphics/SVG/1.1/DTD/svg11.dtd">
<svg version="1.1" id="Layer_1" xmlns="http://www.w3.org/2000/svg" xmlns:xlink="http://www.w3.org/1999/xlink" x="0px" y="0px"
	 width="32px" height="32px" viewBox="0 0 32 32" enable-background="new 0 0 32 32" xml:space="preserve">
<path opacity="0.1" d="M8,0h16c4.418,0,8,3.582,8,8v16c0,4.418-3.582,8-8,8H8c-4.418,0-8-3.582-8-8V8C0,3.582,3.582,0,8,0z"/>
<path fill="none" stroke="#020202" stroke-width="2" d="M9.5,13c0-0.943,0-1.414,0.293-1.707C10.086,11,10.557,11,11.5,11h8.596
	c0.524,0,0.786,0,1.007,0.118c0.221,0.118,0.367,0.336,0.657,0.772l2,3c0.358,0.538,0.538,0.807,0.538,1.109
	c0,0.303-0.179,0.572-0.538,1.109l-2,3c-0.291,0.436-0.436,0.654-0.657,0.772C20.882,21,20.62,21,20.096,21H11.5
	c-0.943,0-1.414,0-1.707-0.293C9.5,20.414,9.5,19.943,9.5,19V13z"/>
<ellipse fill="#923DD5" stroke="#020202" stroke-width="2" cx="19.5" cy="16" rx="0.833" ry="0.833"/>
</svg>
