<?xml version="1.0" encoding="utf-8"?>
<!-- Generator: Adobe Illustrator 17.0.0, SVG Export Plug-In . SVG Version: 6.00 Build 0)  -->
<!DOCTYPE svg PUBLIC "-//W3C//DTD SVG 1.1//EN" "http://www.w3.org/Graphics/SVG/1.1/DTD/svg11.dtd">
<svg version="1.1" id="Layer_1" xmlns="http://www.w3.org/2000/svg" xmlns:xlink="http://www.w3.org/1999/xlink" x="0px" y="0px"
	 width="32px" height="32px" viewBox="0 0 32 32" enable-background="new 0 0 32 32" xml:space="preserve">
<path opacity="0.1" d="M8,0h16c4.418,0,8,3.582,8,8v16c0,4.418-3.582,8-8,8H8c-4.418,0-8-3.582-8-8V8C0,3.582,3.582,0,8,0z"/>
<path stroke="#000000" stroke-miterlimit="10" d="M14.737,20.132l0.447,0.894L14.737,20.132z M15.184,10.974l6.474,3.237L20.764,16
	l-6.475-3.237L15.184,10.974z M21.658,17.789l-6.474,3.237l-0.894-1.789L20.764,16L21.658,17.789z M14,12.942v6.117h-2v-6.117H14z
	 M15.184,21.026C13.721,21.757,12,20.694,12,19.058h2c0,0.149,0.156,0.245,0.289,0.179L15.184,21.026z M21.658,14.211
	c1.474,0.737,1.474,2.841,0,3.578L20.764,16l0,0L21.658,14.211z M14.289,12.763C14.156,12.696,14,12.793,14,12.942h-2
	c0-1.635,1.721-2.699,3.184-1.968L14.289,12.763z"/>
<circle fill="none" stroke="#000000" stroke-width="2" cx="17" cy="16" r="9"/>
</svg>
